<svg width="40" height="25" viewBox="0 0 40 25" fill="none" xmlns="http://www.w3.org/2000/svg">
<path opacity="0.07" d="M36.8421 0H3.15789C1.36842 0 0 1.35416 0 3.12499V21.875C0 23.6458 1.47368 25 3.15789 25H36.8421C38.6316 25 40 23.6458 40 21.875V3.12499C40 1.35416 38.5263 0 36.8421 0Z" fill="white"/>
<path d="M36.8889 1C38.05 1 39 1.94091 39 3.09091V21.9091C39 23.0591 38.05 24 36.8889 24H3.11111C1.95 24 1 23.0591 1 21.9091V3.09091C1 1.94091 1.95 1 3.11111 1H36.8889Z" fill="#006FCF"/>
<path d="M23 20.9808V12L39 12.0139V14.4945L37.1511 16.4696L39 18.4607V20.9936H36.0472L34.478 19.2638L32.9194 21L23 20.9787V20.9808Z" fill="white"/>
<path d="M24 20V13H30V14.612H25.9426V15.7073H29.9031V17.2927H25.9426V18.3688H30V20H24Z" fill="#006FCF"/>
<path d="M30 19.9979L33.2864 16.4952L30 13H32.5434L34.5517 15.2183L36.5664 13.0011H39V13.0554L35.784 16.4952L39 19.8999V19.9989H36.5408L34.4973 17.7593L32.4741 20H30V19.9979Z" fill="#006FCF"/>
<path d="M23.9161 4H27.7309L29.0704 7.07909V4H33.7782L34.5909 6.30745L35.4048 4H39V13H20L23.9161 4Z" fill="white"/>
<path d="M25.228 5L22 12H24.214L24.8229 10.5981H28.1218L28.7306 12H31L27.7852 5H25.228ZM25.5048 9.02668L26.4734 6.79852L27.4399 9.02668H25.5048Z" fill="#006FCF"/>
<path d="M30 11.984V5L33.005 5.01063L34.5529 9.304L36.1094 5.00106H39V11.983L37.1399 12V7.20358L35.3825 11.983H33.6827L31.8911 7.18763V11.984H30Z" fill="#006FCF"/>
</svg>
