<svg width="91" height="32" viewBox="0 0 91 32" fill="none" xmlns="http://www.w3.org/2000/svg">
<path d="M26.2046 23.2677C26.1635 23.3775 25.5509 25.5032 24.0514 27.693C22.7531 29.5902 21.409 31.4783 19.2878 31.5194C17.2032 31.5605 16.5358 30.2851 14.154 30.2851C11.7676 30.2851 11.027 31.4828 9.05212 31.5605C7.00407 31.6383 5.44516 29.5079 4.1377 27.6199C1.46334 23.7523 -0.575579 16.6984 2.16736 11.9394C3.52511 9.57135 5.96175 8.07645 8.60411 8.03531C10.6156 7.99416 12.5082 9.38392 13.7425 9.38392C14.9723 9.38392 17.2764 7.71072 19.6993 7.95758C20.7142 7.99873 23.5623 8.36445 25.3909 11.0434C25.2446 11.1348 21.9896 13.0274 22.0262 16.9636C22.0674 21.6814 26.1589 23.2495 26.2046 23.2677ZM18.1084 5.40666C19.1964 4.09005 19.9279 2.26143 19.7267 0.437378C18.1587 0.496808 16.266 1.4797 15.1414 2.7963C14.1357 3.96205 13.2534 5.82268 13.4911 7.61016C15.2374 7.7473 17.0249 6.7187 18.1084 5.40666Z" fill="currentColor"/>
<path d="M44.8337 17.1145H43.5171L42.7948 14.8424H40.285L39.5947 17.1145H38.3101L40.797 9.39771H42.333L44.8337 17.1145ZM42.5708 13.8915L41.917 11.8755C41.8485 11.6698 41.7204 11.1852 41.5284 10.4217H41.5056C41.4279 10.7509 41.309 11.2355 41.1399 11.8755L40.4998 13.8915H42.5708Z" fill="currentColor"/>
<path d="M50.5436 17.1143H49.4555L49.387 16.264H49.3641C48.9755 16.9177 48.3858 17.2469 47.5995 17.2469C47.0509 17.2469 46.612 17.0732 46.2829 16.7303C45.8943 16.3097 45.6977 15.6743 45.6977 14.8285V11.5507H46.9412V14.6228C46.9412 15.6926 47.3069 16.2274 48.0429 16.2274C48.5915 16.2274 48.9755 15.9623 49.1858 15.4228C49.2407 15.2857 49.2635 15.1303 49.2635 14.952V11.5461H50.507V15.5051C50.5116 16.04 50.5253 16.5703 50.5436 17.1143Z" fill="currentColor"/>
<path d="M54.8683 12.4833H53.5014V15.1851C53.5014 15.8708 53.7437 16.2183 54.2282 16.2183C54.4523 16.2183 54.6351 16.1954 54.7814 16.1497L54.8134 17.0914C54.5711 17.1829 54.2465 17.2286 53.8534 17.2286C53.3642 17.2286 52.9802 17.0823 52.7059 16.7806C52.4316 16.4834 52.2945 15.9851 52.2945 15.2811V12.4787H51.4807V11.5507H52.2945V10.5267L53.5059 10.1564V11.5507H54.8728V12.4833H54.8683Z" fill="currentColor"/>
<path d="M60.7839 17.1144H59.5404V13.9463C59.5404 12.9497 59.1655 12.4468 58.4204 12.4468C57.8489 12.4468 57.4558 12.7348 57.2409 13.3154C57.2043 13.4389 57.1815 13.5852 57.1815 13.7634V17.1144H55.938V8.99988H57.1815V12.3371H57.2043C57.5929 11.7383 58.1507 11.4411 58.8775 11.4411C59.3895 11.4411 59.8147 11.6102 60.1484 11.944C60.569 12.3645 60.7793 12.9863 60.7793 13.8092V17.1144H60.7839Z" fill="currentColor"/>
<path d="M67.3989 14.2891C67.3989 15.144 67.1567 15.848 66.6675 16.3966C66.1555 16.9635 65.4743 17.2423 64.6286 17.2423C63.8103 17.2423 63.1611 16.9726 62.6765 16.4286C62.1919 15.8892 61.9496 15.2034 61.9496 14.3805C61.9496 13.5165 62.2011 12.8125 62.6994 12.2593C63.1977 11.7107 63.8743 11.4319 64.72 11.4319C65.5383 11.4319 66.1966 11.7062 66.6904 12.2456C67.1612 12.7759 67.3989 13.4571 67.3989 14.2891ZM66.1143 14.3211C66.1143 13.8137 66.0046 13.3748 65.7806 13.0091C65.52 12.5656 65.1497 12.3462 64.6697 12.3462C64.1714 12.3462 63.7966 12.5656 63.536 13.0091C63.3165 13.3748 63.2023 13.8182 63.2023 14.344C63.2023 14.856 63.312 15.2903 63.536 15.656C63.8057 16.0995 64.176 16.3189 64.6606 16.3189C65.136 16.3189 65.5017 16.0949 65.7715 15.6469C66 15.272 66.1143 14.8286 66.1143 14.3211Z" fill="currentColor"/>
<path d="M71.5225 12.6342C71.3991 12.6113 71.2711 12.5976 71.1339 12.5976C70.6996 12.5976 70.3659 12.7622 70.1282 13.0914C69.9225 13.3794 69.8219 13.7497 69.8219 14.1931V17.1143H68.5784V13.3017C68.5784 12.6616 68.5647 12.0765 68.5464 11.5507H69.6207L69.6664 12.6068H69.703C69.831 12.2411 70.0367 11.9485 70.3202 11.729C70.5945 11.5325 70.8916 11.4319 71.2116 11.4319C71.3259 11.4319 71.4311 11.441 71.5225 11.4548V12.6342Z" fill="currentColor"/>
<path d="M73.8448 9.87757C73.8448 10.097 73.7717 10.2799 73.6254 10.417C73.4791 10.5542 73.2917 10.6227 73.0677 10.6227C72.8619 10.6227 72.6882 10.5496 72.5465 10.4124C72.4048 10.2707 72.3362 10.0924 72.3362 9.87757C72.3362 9.66271 72.4094 9.48899 72.5511 9.35184C72.6974 9.2147 72.8757 9.14612 73.0905 9.14612C73.3008 9.14612 73.4837 9.2147 73.6254 9.35184C73.7717 9.48899 73.8448 9.66271 73.8448 9.87757ZM73.7123 17.1143H72.4688V11.5553H73.7123V17.1143Z" fill="currentColor"/>
<path d="M79.2439 17.1145H74.7134V16.3876L76.9352 13.4572C77.0724 13.2744 77.3238 12.9727 77.6895 12.5475H74.9283V11.5509H79.189V12.3189L77.0129 15.2036C76.7661 15.519 76.5146 15.8207 76.2586 16.1133H79.2439V17.1145Z" fill="currentColor"/>
<path d="M84.7388 14.0651C84.7388 14.2846 84.7251 14.472 84.6931 14.6275H80.9856C80.9993 15.176 81.1821 15.5966 81.525 15.8892C81.8405 16.1498 82.2428 16.2778 82.7411 16.2778C83.2896 16.2778 83.7879 16.1909 84.2405 16.0126L84.4371 16.8675C83.9114 17.0961 83.2896 17.2104 82.5673 17.2104C81.7033 17.2104 81.0267 16.9544 80.533 16.4469C80.0393 15.9395 79.797 15.2583 79.797 14.4034C79.797 13.5623 80.0255 12.8674 80.4873 12.3097C80.9673 11.7154 81.6165 11.4182 82.4348 11.4182C83.2348 11.4182 83.8428 11.7154 84.2542 12.3097C84.5742 12.7851 84.7388 13.3703 84.7388 14.0651ZM83.5594 13.7451C83.5685 13.3794 83.4862 13.0594 83.3216 12.7943C83.1068 12.4514 82.7822 12.2777 82.3388 12.2777C81.9365 12.2777 81.6073 12.4468 81.3559 12.7805C81.1501 13.0503 81.0267 13.3703 80.9902 13.7451H83.5594Z" fill="currentColor"/>
<path d="M90.8648 17.1098H89.763L89.7036 16.2184H89.6716C89.3196 16.9041 88.7253 17.247 87.8841 17.247C87.2121 17.247 86.6543 16.9818 86.2109 16.4561C85.7675 15.9304 85.548 15.2446 85.548 14.4034C85.548 13.5028 85.7903 12.7714 86.2749 12.2137C86.7458 11.6925 87.3218 11.4319 88.003 11.4319C88.7527 11.4319 89.283 11.6834 89.5801 12.1817V8.99072H90.8236V15.6058C90.8282 16.1544 90.8419 16.6527 90.8648 17.1098ZM89.5847 14.7692V13.8412C89.5847 13.6811 89.571 13.5531 89.5481 13.4526C89.4796 13.1554 89.3287 12.904 89.1001 12.7028C88.8716 12.5017 88.5973 12.4011 88.2727 12.4011C87.811 12.4011 87.4498 12.584 87.1892 12.9497C86.9241 13.3154 86.7915 13.7863 86.7915 14.3577C86.7915 14.9063 86.9195 15.3543 87.1709 15.6972C87.4407 16.0629 87.7972 16.2458 88.2498 16.2458C88.6567 16.2458 88.9813 16.0949 89.2236 15.7886C89.4659 15.5098 89.5847 15.1669 89.5847 14.7692Z" fill="currentColor"/>
<path d="M44.0703 30.2851H42.7902C42.6668 30.0565 42.4977 29.4485 42.2874 28.4565C42.1822 27.9399 42.0177 27.5741 41.8028 27.3638C41.5834 27.1536 41.2725 27.0484 40.8565 27.0484H40.0885V30.2851H38.8587V22.6643C39.4256 22.5591 40.093 22.5043 40.8656 22.5043C41.9125 22.5043 42.6805 22.71 43.1605 23.126C43.5903 23.4917 43.8051 23.9992 43.8051 24.6529C43.8051 25.1238 43.6634 25.5444 43.38 25.9009C43.124 26.2209 42.7948 26.4541 42.3879 26.6004V26.6233C42.9137 26.8244 43.2794 27.3364 43.476 28.1593C43.6314 28.7993 43.7411 29.2473 43.8097 29.4896C43.9103 29.8919 44.0017 30.1571 44.0703 30.2851ZM42.5571 24.7672C42.5571 23.8849 42.0314 23.4414 40.9753 23.4323C40.5776 23.4323 40.2805 23.4597 40.0839 23.51V26.1158H40.9525C41.4416 26.1158 41.8302 25.9924 42.1182 25.7455C42.4108 25.4986 42.5571 25.1695 42.5571 24.7672Z" fill="currentColor"/>
<path d="M49.707 27.2403C49.707 27.4598 49.6933 27.6472 49.6613 27.8026H45.9537C45.972 28.3512 46.1503 28.7718 46.4932 29.0644C46.8041 29.3249 47.2109 29.453 47.7047 29.453C48.2532 29.453 48.7561 29.3661 49.2041 29.1878L49.3961 30.0427C48.8704 30.2713 48.2487 30.3855 47.5264 30.3855C46.6623 30.3855 45.9858 30.1295 45.492 29.6221C44.9983 29.1147 44.7514 28.4335 44.7514 27.5786C44.7514 26.7374 44.98 26.0426 45.4417 25.4848C45.9218 24.8905 46.5709 24.5934 47.3892 24.5934C48.1892 24.5934 48.7973 24.8905 49.2087 25.4848C49.5424 25.9603 49.707 26.5454 49.707 27.2403ZM48.5275 26.9203C48.5367 26.5546 48.4544 26.2346 48.2898 25.9694C48.075 25.6266 47.7504 25.4528 47.3069 25.4528C46.9001 25.4528 46.5755 25.622 46.3241 25.9557C46.1183 26.2254 45.9949 26.5454 45.9583 26.9203H48.5275Z" fill="currentColor"/>
<path d="M54.1962 28.6897C54.1962 29.2063 54.0042 29.6223 53.6248 29.9378C53.2453 30.2486 52.715 30.4041 52.043 30.4041C51.4076 30.4041 50.8727 30.2806 50.4293 30.0246L50.6944 29.1057C51.1196 29.3617 51.5721 29.4897 52.0567 29.4897C52.6876 29.4897 53.0031 29.2566 53.0031 28.7949C53.0031 28.5891 52.9345 28.42 52.7973 28.2874C52.6602 28.1548 52.4179 28.0223 52.0659 27.8943C51.0739 27.5285 50.5801 26.9982 50.5801 26.2942C50.5801 25.8142 50.763 25.4165 51.1287 25.0965C51.4944 24.7765 51.979 24.6165 52.5825 24.6165C53.131 24.6165 53.6019 24.7262 53.9905 24.9502L53.7254 25.8279C53.3688 25.6176 52.9893 25.5171 52.5916 25.5171C52.331 25.5171 52.1299 25.5765 51.9836 25.6999C51.8373 25.8233 51.7687 25.9788 51.7687 26.1708C51.7687 26.3628 51.8464 26.5182 51.9973 26.6417C52.1253 26.756 52.3767 26.8794 52.7516 27.0165C53.7162 27.3731 54.1962 27.9308 54.1962 28.6897Z" fill="currentColor"/>
<path d="M59.9793 27.2403C59.9793 27.4598 59.9656 27.6472 59.9336 27.8026H56.226C56.2398 28.3512 56.4226 28.7718 56.7655 29.0644C57.0809 29.3249 57.4832 29.453 57.9815 29.453C58.5301 29.453 59.0284 29.3661 59.481 29.1878L59.6776 30.0427C59.1518 30.2713 58.5301 30.3855 57.8078 30.3855C56.9438 30.3855 56.2672 30.1295 55.7735 29.6221C55.2797 29.1147 55.0374 28.4335 55.0374 27.5786C55.0374 26.7374 55.266 26.0426 55.7277 25.4848C56.2078 24.8905 56.8569 24.5934 57.6752 24.5934C58.4753 24.5934 59.0833 24.8905 59.4947 25.4848C59.8193 25.9603 59.9793 26.5454 59.9793 27.2403ZM58.8044 26.9203C58.8135 26.5546 58.7313 26.2346 58.5667 25.9694C58.3518 25.6266 58.0272 25.4528 57.5838 25.4528C57.1815 25.4528 56.8524 25.622 56.6009 25.9557C56.3952 26.2254 56.2718 26.5454 56.2352 26.9203H58.8044Z" fill="currentColor"/>
<path d="M62.3839 22.1705H61.1405V30.285H62.3839V22.1705Z" fill="currentColor"/>
<path d="M65.1817 22.1705H63.9383V30.285H65.1817V22.1705Z" fill="currentColor"/>
<path d="M71.3122 27.2403C71.3122 27.4598 71.2985 27.6472 71.2665 27.8026H67.559C67.5727 28.3512 67.7555 28.7718 68.0984 29.0644C68.4138 29.3249 68.8161 29.453 69.3144 29.453C69.863 29.453 70.3613 29.3661 70.8139 29.1878L71.0105 30.0427C70.4848 30.2713 69.863 30.3855 69.1407 30.3855C68.2767 30.3855 67.6001 30.1295 67.1064 29.6221C66.6127 29.1147 66.3704 28.4335 66.3704 27.5786C66.3704 26.7374 66.5989 26.0426 67.0607 25.4848C67.5407 24.8905 68.1898 24.5934 69.0081 24.5934C69.8082 24.5934 70.4162 24.8905 70.8276 25.4848C71.1476 25.9603 71.3122 26.5454 71.3122 27.2403ZM70.1328 26.9203C70.1419 26.5546 70.0596 26.2346 69.895 25.9694C69.6802 25.6266 69.3556 25.4528 68.9121 25.4528C68.5098 25.4528 68.1807 25.622 67.9293 25.9557C67.7235 26.2254 67.6001 26.5454 67.5635 26.9203H70.1328Z" fill="currentColor"/>
<path d="M75.4174 25.8096C75.294 25.7868 75.166 25.773 75.0288 25.773C74.5946 25.773 74.2608 25.9376 74.0231 26.2668C73.8174 26.5548 73.7168 26.9251 73.7168 27.3685V30.2897H72.4733V26.4771C72.4733 25.837 72.4596 25.2519 72.4413 24.7262H73.5202L73.5659 25.7822H73.6025C73.7305 25.4165 73.9408 25.1239 74.2197 24.9044C74.494 24.7079 74.7911 24.6073 75.1111 24.6073C75.2254 24.6073 75.3306 24.6164 75.422 24.6302V25.8096H75.4174Z" fill="currentColor"/>
</svg>
