<svg width="194" height="56" viewBox="0 0 194 56" fill="none" xmlns="http://www.w3.org/2000/svg">
<g clip-path="url(#clip0_578_5357)">
<path d="M7.99741 33.6966C6.97982 34.8418 5.91143 36.1408 4.80364 37.6189C5.02787 38.3576 5.2667 39.0837 5.52014 39.7932C6.88454 38.545 7.97009 37.6094 8.90574 36.8548C8.56972 35.8207 8.268 34.7669 7.99741 33.6966ZM49.2464 11.029C46.691 8.788 46.1314 4.43437 45.7782 1.07164C45.0573 -0.537945 43.7462 0.106144 42.3126 0.315123C34.1084 1.50993 24.3277 1.70874 16.3706 0.668927C15.2062 0.51648 13.0199 -0.126973 11.9718 0.0222977C11.3595 0.109319 10.7002 0.618111 10.4169 1.18089C9.88902 2.22897 9.56761 3.77567 9.03278 4.9565C8.05775 7.10854 6.26777 10.005 4.18496 11.2856C3.31347 11.8217 2.4458 11.8738 1.9135 12.9022C1.51142 13.679 1.65434 15.3674 1.67086 16.249C1.77757 21.9709 2.56204 29.7558 4.51463 36.6356C5.57985 35.2401 6.66286 33.9348 7.76048 32.7241C6.39926 26.9114 5.90063 20.6731 5.76342 14.6769C9.6197 12.4709 11.8524 8.25825 13.4537 4.36513C14.9992 4.5125 16.523 4.79897 18.071 4.93109C24.1847 5.45322 31.0665 5.45957 37.3041 4.93109C37.9399 4.8771 41.8305 4.27938 42.016 4.4223C42.6467 8.36496 43.9304 12.4467 47.1737 14.7741L47.1998 14.9291C45.1341 22.3323 42.7102 29.9997 38.826 36.8751C35.1743 43.3401 32.1723 46.0486 25.6933 49.5657C25.1286 49.8725 22.3312 51.423 21.9673 51.4465C21.5595 51.4725 18.4648 49.5441 17.9141 49.189C13.2403 46.1763 11.1499 43.2531 9.2786 37.9568C9.24747 37.8685 9.21635 37.7796 9.18586 37.6907C8.25911 38.4478 7.18055 39.386 5.82948 40.6297C7.13354 44.0522 8.8003 47.0458 10.9047 49.1566C12.9646 51.2235 17.7 54.3735 20.4523 55.4933C21.4172 55.8852 21.6224 55.8293 22.6501 55.4031C26.1278 53.9612 32.2282 50.4715 35.0606 47.9421C42.2287 41.5406 47.1293 29.0018 49.759 20.2742C50.3097 18.4462 51.124 15.9606 51.4359 14.156C51.8424 11.8071 50.4971 12.126 49.2464 11.029Z" fill="url(#paint0_linear_578_5357)"/>
<path fill-rule="evenodd" clip-rule="evenodd" d="M34.2944 25.0408C32.3025 26.4795 30.3048 27.9182 28.3122 29.3563C28.2944 29.3703 28.2747 29.3766 28.2556 29.3766C28.1997 29.3766 28.1496 29.3239 28.1661 29.2591L28.5459 27.842C28.3668 27.8369 28.1864 27.8337 28.0047 27.8337C27.8231 27.8337 27.642 27.8369 27.4604 27.842C25.2124 27.8966 22.9219 28.2707 20.6581 28.9332L20.4033 29.8829L19.8603 31.9079H32.1341C32.3457 31.9079 32.4924 32.1086 32.4378 32.3099L31.0105 37.396C30.9724 37.5319 30.8472 37.624 30.7062 37.624H13.0205C12.814 37.624 12.6622 37.429 12.7162 37.2276C13.2155 35.3716 13.232 35.2954 13.7313 33.4387C12.0385 34.5623 10.7706 35.35 8.90567 36.8548C7.97003 37.6094 6.88448 38.545 5.52008 39.7932C4.08136 41.1099 2.33203 42.7748 0.120911 44.944C0.106301 44.9573 0.0897863 44.963 0.0739064 44.963C0.0256316 44.963 -0.0175618 44.9097 0.00721088 44.857C1.66126 42.0558 3.27021 39.6655 4.80358 37.6189C5.91136 36.1408 6.97976 34.8418 7.99734 33.6966C10.8722 30.4609 13.34 28.4524 15.1388 27.0963C15.2646 27.0016 15.3872 26.9101 15.5066 26.8212C17.369 25.4384 19.3896 24.3141 21.4857 23.5099C21.4991 23.5042 21.513 23.4991 21.5264 23.4941C21.7449 23.4108 21.964 23.3308 22.1838 23.2546C23.9585 22.6359 25.772 22.2453 27.5798 22.1201H30.0818L30.4839 20.6223C30.4972 20.576 30.536 20.5499 30.576 20.5499C30.6014 20.5499 30.6275 20.5607 30.6465 20.5842L30.6414 20.5893C31.8629 22.028 33.0895 23.4667 34.311 24.9055C34.3491 24.9487 34.3383 25.0084 34.2944 25.0408Z" fill="url(#paint1_linear_578_5357)"/>
<path d="M15.8447 25.5648C15.8403 25.5801 15.8365 25.5959 15.832 25.6112C17.5394 24.4265 19.3612 23.4522 21.2344 22.7217C19.3663 23.4331 17.5598 24.3865 15.8447 25.5648Z" fill="black"/>
<path fill-rule="evenodd" clip-rule="evenodd" d="M37.665 12.7345L36.3025 17.8211C36.2644 17.9564 36.1399 18.0542 35.9989 18.0542H23.5782L22.4438 22.2884C22.3244 22.3265 22.205 22.3647 22.0855 22.4078C21.8048 22.505 21.5253 22.6079 21.2471 22.7166C21.2426 22.7185 21.2388 22.7197 21.2344 22.7216C19.3612 23.4521 17.5394 24.4265 15.832 25.6111C15.8365 25.5959 15.8403 25.58 15.8447 25.5648C17.0071 21.2315 18.1651 16.8994 19.3275 12.5661C19.3656 12.4302 19.4908 12.333 19.6318 12.333H37.3614V12.3381C37.5678 12.3381 37.7196 12.5337 37.665 12.7345Z" fill="url(#paint2_linear_578_5357)"/>
<path d="M15.5064 26.8212C15.387 26.9101 15.2644 27.0016 15.1387 27.0962L16.3024 26.2895C17.9507 25.1468 19.6905 24.2137 21.4855 23.5099C19.3894 24.314 17.3688 25.4383 15.5064 26.8212Z" fill="black"/>
<path d="M55.651 34.0967L59.1897 13.9591H66.6602C68.1485 13.9591 69.403 14.4317 70.4238 15.3775C71.4439 16.3233 71.9546 17.5118 71.9546 18.9441C71.9546 19.8334 71.7272 20.6433 71.2737 21.3737C70.8195 22.1042 70.2599 22.7312 69.5955 23.2552C70.157 23.6674 70.6086 24.2194 70.9504 24.9124C71.2921 25.6054 71.463 26.3543 71.463 27.1591C71.463 28.3387 71.1047 29.4668 70.3888 30.5434C69.6723 31.6201 68.7411 32.4814 67.594 33.1274C66.4468 33.7734 65.2654 34.0961 64.0483 34.0961H55.6504L55.651 34.0967ZM60.3693 30.2487H64.5679C65.2609 30.2487 65.8974 29.9775 66.4779 29.4344C67.0585 28.8913 67.3488 28.2593 67.3488 27.5383C67.3488 26.9673 67.1595 26.4902 66.7803 26.106C66.4011 25.7223 65.9399 25.5305 65.3968 25.5305H61.1982L60.3699 30.2487H60.3693ZM61.8296 21.8794H65.2838C65.9672 21.8794 66.5688 21.6526 67.0884 21.1984C67.608 20.7443 67.8677 20.2037 67.8677 19.5761C67.8677 19.0801 67.6924 18.6634 67.3412 18.3261C66.9899 17.9888 66.5427 17.8205 66.0003 17.8205H62.5461L61.8296 21.8787V21.8794Z" fill="#FCFCFC"/>
<path d="M83.8905 13.9591C85.3699 13.9591 86.6149 14.4743 87.6261 15.5039C88.6373 16.5336 89.143 17.7931 89.143 19.2814C89.143 20.6668 88.6634 21.9518 87.7036 23.1364C86.7438 24.3211 85.5763 25.1843 84.1999 25.7274L88.5389 34.0967H83.6517L79.6214 26.3029H77.9927L76.6023 34.0967H72.5859L76.1246 13.9591H83.8905ZM83.188 17.849H79.481L78.6806 22.4549H82.2759C82.9403 22.4549 83.5653 22.1785 84.1503 21.6266C84.7353 21.0746 85.0282 20.4565 85.0282 19.7731C85.0282 19.2115 84.8528 18.7504 84.5016 18.3896C84.1503 18.0294 83.7127 17.849 83.1886 17.849H83.188Z" fill="#FCFCFC"/>
<path d="M101.991 13.6783C103.62 13.6783 105.069 14.0576 106.337 14.816C107.606 15.5744 108.584 16.6136 109.273 17.9335C109.961 19.2535 110.305 20.7373 110.305 22.385C110.305 24.0327 109.973 25.5584 109.307 27.0473C108.642 28.5356 107.765 29.8136 106.675 30.8807C105.584 31.9478 104.308 32.7977 102.848 33.4298C101.388 34.0618 99.885 34.3775 98.3402 34.3775C95.9061 34.3775 93.9167 33.5511 92.3719 31.8989C90.8271 30.2468 90.0547 28.1614 90.0547 25.6429C90.0547 24.0327 90.385 22.4834 91.045 20.9945C91.7049 19.5056 92.5802 18.2308 93.6709 17.1681C94.7615 16.1054 96.0344 15.2581 97.4903 14.6267C98.9462 13.9947 100.446 13.679 101.991 13.679V13.6783ZM101.303 17.5823C100.058 17.5823 98.8928 17.9145 97.8066 18.5795C96.7204 19.2446 95.8521 20.1618 95.2017 21.3318C94.5506 22.5025 94.226 23.7754 94.226 25.1513C94.226 26.7151 94.6637 27.9925 95.539 28.9847C96.4143 29.9768 97.5773 30.4729 99.0287 30.4729C99.9555 30.4729 100.854 30.2741 101.725 29.8758C102.596 29.4782 103.354 28.9446 104 28.2751C104.646 27.6057 105.163 26.8009 105.552 25.8595C105.94 24.9188 106.134 23.9336 106.134 22.9033C106.134 21.3401 105.692 20.0621 104.807 19.0699C103.922 18.0777 102.754 17.5816 101.303 17.5816V17.5823Z" fill="#FCFCFC"/>
<path d="M114.447 13.9591H117.859L124.249 26.2184L126.411 13.9591H130.428L126.889 34.0967H123.505L117.087 21.8794L114.925 34.0967H110.908L114.447 13.9591Z" fill="#FCFCFC"/>
<path d="M133.658 13.9591H137.674L134.135 34.0967H130.119L133.658 13.9591Z" fill="#FCFCFC"/>
<path d="M158.557 22.3849C158.557 23.9672 158.245 25.479 157.623 26.9209C157 28.3628 156.142 29.6408 155.046 30.7543L157.49 34.0967H152.771L151.999 33.0296C150.248 33.9284 148.446 34.3774 146.592 34.3774C144.158 34.3774 142.169 33.5511 140.624 31.8989C139.079 30.2468 138.307 28.1614 138.307 25.6429C138.307 24.0326 138.637 22.4834 139.297 20.9945C139.957 19.5056 140.832 18.2308 141.923 17.1681C143.013 16.1054 144.286 15.2581 145.742 14.6267C147.198 13.9946 148.698 13.679 150.243 13.679C151.872 13.679 153.321 14.0582 154.589 14.8166C155.858 15.575 156.836 16.6142 157.524 17.9341C158.213 19.2541 158.557 20.7379 158.557 22.3856V22.3849ZM147.28 30.4735C148.132 30.4735 148.965 30.3097 149.78 29.9819L146.156 25.0108H150.875L152.799 27.6228C153.856 26.2654 154.385 24.6926 154.385 22.9045C154.385 21.3413 153.943 20.0633 153.058 19.0711C152.174 18.079 151.005 17.5829 149.555 17.5829C148.31 17.5829 147.144 17.9151 146.058 18.5801C144.972 19.2452 144.103 20.1624 143.453 21.3324C142.802 22.5031 142.477 23.776 142.477 25.1519C142.477 26.7157 142.915 27.9931 143.79 28.9853C144.666 29.9774 145.829 30.4735 147.28 30.4735Z" fill="#FCFCFC"/>
<path d="M167.038 34.3495C165.971 34.3495 164.99 34.1602 164.096 33.781C163.202 33.4018 162.455 32.8733 161.856 32.1943C161.257 31.5159 160.836 30.6685 160.592 29.6529C160.349 28.6372 160.33 27.53 160.536 26.3314L162.699 13.9597H166.716L164.567 26.3314C164.323 27.6329 164.501 28.6442 165.1 29.3645C165.699 30.0854 166.584 30.4456 167.754 30.4456C168.924 30.4456 169.921 30.0854 170.773 29.3645C171.625 28.6435 172.164 27.6323 172.388 26.3314L174.565 13.9597H178.595L176.446 26.3314C176.24 27.53 175.833 28.6366 175.225 29.6529C174.616 30.6685 173.886 31.5159 173.034 32.1943C172.182 32.8733 171.239 33.4018 170.204 33.781C169.169 34.1602 168.114 34.3495 167.038 34.3495H167.038Z" fill="#FCFCFC"/>
<path d="M181.81 13.9591H194L193.34 17.8211H185.167L184.45 21.9359H191.724L191.064 25.7839H183.762L182.99 30.2493H191.149L190.461 34.0974H178.271L181.81 13.9597V13.9591Z" fill="#FCFCFC"/>
</g>
<defs>
<linearGradient id="paint0_linear_578_5357" x1="1.63275" y1="27.8788" x2="51.5102" y2="27.8788" gradientUnits="userSpaceOnUse">
<stop stop-color="#05A89D"/>
<stop offset="0.38" stop-color="#1CBC9C"/>
<stop offset="1" stop-color="#4BE39C"/>
</linearGradient>
<linearGradient id="paint1_linear_578_5357" x1="0.000223729" y1="32.7565" x2="34.3345" y2="32.7565" gradientUnits="userSpaceOnUse">
<stop stop-color="#05A89D"/>
<stop offset="0.38" stop-color="#1CBC9C"/>
<stop offset="1" stop-color="#4BE39C"/>
</linearGradient>
<linearGradient id="paint2_linear_578_5357" x1="15.832" y1="18.9721" x2="37.6764" y2="18.9721" gradientUnits="userSpaceOnUse">
<stop stop-color="#05A89D"/>
<stop offset="0.38" stop-color="#1CBC9C"/>
<stop offset="1" stop-color="#4BE39C"/>
</linearGradient>
<clipPath id="clip0_578_5357">
<rect width="194" height="55.7575" fill="white"/>
</clipPath>
</defs>
</svg>
