<svg width="91" height="32" viewBox="0 0 91 32" fill="none" xmlns="http://www.w3.org/2000/svg">
<g clip-path="url(#clip0_464_5469)">
<mask id="mask0_464_5469" style="mask-type:luminance" maskUnits="userSpaceOnUse" x="0" y="0" width="91" height="32">
<path d="M90.3093 0.228516H0.864746V31.5398H90.3093V0.228516Z" fill="white"/>
</mask>
<g mask="url(#mask0_464_5469)">
<path fill-rule="evenodd" clip-rule="evenodd" d="M28.5444 10.445C28.4851 10.3741 28.373 10.4 28.3494 10.49L27.8654 12.3434H24.8464C22.6664 12.4983 20.4743 12.9791 18.3342 13.745C15.5069 14.7558 12.7706 16.2624 10.278 18.1649C6.3396 21.169 3.00714 25.1624 0.873485 29.754C0.83125 29.844 0.94171 29.9273 1.01318 29.8606C3.39781 27.6256 5.99603 25.709 8.71366 24.1507C8.11344 26.4498 7.51241 28.7498 6.9122 31.0489C6.84723 31.2964 7.02916 31.5406 7.27931 31.5406H28.6239C28.7945 31.5406 28.944 31.4239 28.9903 31.2556L30.7162 24.9548C30.7844 24.7056 30.6017 24.459 30.3499 24.459H15.5354L16.1908 21.9498L16.4978 20.7741C19.2317 19.9507 21.9956 19.4899 24.7059 19.4257C25.1437 19.4149 25.5807 19.4149 26.0151 19.4257L25.5579 21.1773C25.5303 21.2824 25.6472 21.3649 25.7333 21.3015C28.1407 19.5208 30.5473 17.7391 32.9547 15.9583C33.0082 15.9191 33.0171 15.8408 32.9749 15.7892C31.4984 14.0083 30.0218 12.2258 28.5444 10.445Z" fill="#00E796"/>
<path fill-rule="evenodd" clip-rule="evenodd" d="M36.6518 0.228516H15.2536C15.0814 0.228516 14.9303 0.346848 14.8865 0.517679C13.4805 5.90179 12.0747 11.2858 10.6679 16.67C13.0428 14.9825 15.5979 13.6375 18.2157 12.7017C18.3586 12.65 18.5024 12.6 18.6453 12.5518L20.0139 7.3101H35.0055C35.1777 7.3101 35.3288 7.19177 35.3727 7.02094L37.0182 0.720177C37.0832 0.47268 36.902 0.228516 36.6518 0.228516Z" fill="#00E796"/>
<path d="M50.9846 31.274L47.3151 24.3241L43.5928 31.2765C43.5059 31.439 43.3394 31.5399 43.1591 31.5399H36.8695C36.4788 31.5399 36.2424 31.0965 36.4528 30.7591L43.0527 20.1692L36.7208 9.04258C36.5283 8.70433 36.7663 8.2793 37.148 8.2793H43.5019C43.6846 8.2793 43.8527 8.38263 43.938 8.54763L47.4216 15.2492L50.9579 8.54513C51.044 8.38096 51.2113 8.2793 51.3932 8.2793H57.3141C57.6919 8.2793 57.9306 8.69681 57.7454 9.03515L51.684 20.1425L58.2855 30.7599C58.4959 31.0974 58.2588 31.5407 57.8689 31.5407H51.42C51.2381 31.5407 51.0716 31.4382 50.9846 31.274Z" fill="currentColor"/>
<path d="M62.4041 31.0327V8.73214C62.4041 8.4521 62.6259 8.22461 62.8988 8.22461H68.33C68.6029 8.22461 68.8245 8.4521 68.8245 8.73214V31.0327C68.8245 31.3126 68.6029 31.5402 68.33 31.5402H62.8988C62.6259 31.5402 62.4041 31.3126 62.4041 31.0327Z" fill="currentColor"/>
<path d="M78.5336 31.0326V13.2269H73.3274C73.0546 13.2269 72.8328 12.9994 72.8328 12.7194V8.75944C72.8328 8.47945 73.0546 8.25195 73.3274 8.25195H89.8147C90.0873 8.25195 90.3093 8.47945 90.3093 8.75944V12.7194C90.3093 12.9994 90.0873 13.2269 89.8147 13.2269H84.6081V31.0326C84.6081 31.3125 84.3863 31.54 84.1134 31.54H79.0291C78.7562 31.54 78.5336 31.3125 78.5336 31.0326Z" fill="currentColor"/>
</g>
</g>
<defs>
<clipPath id="clip0_464_5469">
<rect width="90" height="32" fill="white" transform="translate(0.864746)"/>
</clipPath>
</defs>
</svg>
