<svg width="17" height="17" viewBox="0 0 17 17" fill="none" xmlns="http://www.w3.org/2000/svg">
<path d="M1 8.5L2.66667 6.83333M2.66667 6.83333L8.5 1L14.3333 6.83333M2.66667 6.83333V15.1667C2.66667 15.6269 3.03977 16 3.5 16H6M14.3333 6.83333L16 8.5M14.3333 6.83333V15.1667C14.3333 15.6269 13.9602 16 13.5 16H11M6 16C6.46023 16 6.83333 15.6269 6.83333 15.1667V11.8333C6.83333 11.3731 7.20642 11 7.66667 11H9.33333C9.79358 11 10.1667 11.3731 10.1667 11.8333V15.1667C10.1667 15.6269 10.5397 16 11 16M6 16H11" stroke="currentColor" stroke-opacity="0.8" stroke-width="1.66667" stroke-linecap="round" stroke-linejoin="round"/>
</svg>
