<svg width="14" height="20" viewBox="0 0 14 20" fill="none" xmlns="http://www.w3.org/2000/svg">
<path d="M7 9.5C6.337 9.5 5.7011 9.2366 5.2322 8.7678C4.7634 8.2989 4.5 7.66304 4.5 7C4.5 6.33696 4.7634 5.70107 5.2322 5.23223C5.7011 4.76339 6.337 4.5 7 4.5C7.663 4.5 8.2989 4.76339 8.7678 5.23223C9.2366 5.70107 9.5 6.33696 9.5 7C9.5 7.3283 9.4353 7.65339 9.3097 7.95671C9.1841 8.26 8.9999 8.5356 8.7678 8.7678C8.5356 8.9999 8.26 9.1841 7.9567 9.3097C7.6534 9.4353 7.3283 9.5 7 9.5ZM7 0C5.1435 0 3.36301 0.7375 2.05026 2.05025C0.7375 3.36301 0 5.14348 0 7C0 12.25 7 20 7 20C7 20 14 12.25 14 7C14 5.14348 13.2625 3.36301 11.9498 2.05025C10.637 0.7375 8.8565 0 7 0Z" fill="currentColor"/>
</svg>
