<svg width="40" height="25" viewBox="0 0 40 25" fill="none" xmlns="http://www.w3.org/2000/svg">
<path opacity="0.07" d="M36.8421 0H3.15789C1.36842 0 0 1.35416 0 3.12499V21.875C0 23.6458 1.47368 25 3.15789 25H36.8421C38.6316 25 40 23.6458 40 21.875V3.12499C40 1.35416 38.5263 0 36.8421 0Z" fill="white"/>
<path d="M36.8889 1C38.05 1 39 1.94091 39 3.09091V21.9091C39 23.0591 38.05 24 36.8889 24H3.11111C1.95 24 1 23.0591 1 21.9091V3.09091C1 1.94091 1.95 1 3.11111 1H36.8889Z" fill="white"/>
<path d="M15.5 20C19.6421 20 23 16.6422 23 12.5C23 8.35786 19.6421 5 15.5 5C11.3579 5 8 8.35786 8 12.5C8 16.6422 11.3579 20 15.5 20Z" fill="#EB001B"/>
<path d="M24.5 20C28.6421 20 32 16.6422 32 12.5C32 8.35786 28.6421 5 24.5 5C20.3579 5 17 8.35786 17 12.5C17 16.6422 20.3579 20 24.5 20Z" fill="#F79E1B"/>
<path d="M23 12.5C23 10.1842 21.8 8.15789 20 7C18.2 8.25438 17 10.2807 17 12.5C17 14.7193 18.2 16.8421 20 18C21.8 16.8421 23 14.8158 23 12.5Z" fill="#FF5F00"/>
</svg>
