<svg width="40" height="25" viewBox="0 0 40 25" fill="none" xmlns="http://www.w3.org/2000/svg">
<path opacity="0.07" d="M36.8421 0H3.15789C1.36842 0 0 1.35416 0 3.12499V21.875C0 23.6458 1.47368 25 3.15789 25H36.8421C38.6316 25 40 23.6458 40 21.875V3.12499C40 1.35416 38.5263 0 36.8421 0Z" fill="white"/>
<path d="M36.8889 1C38.05 1 39 1.94091 39 3.09091V21.9091C39 23.0591 38.05 24 36.8889 24H3.11111C1.95 24 1 23.0591 1 21.9091V3.09091C1 1.94091 1.95 1 3.11111 1H36.8889Z" fill="white"/>
<path d="M24.9248 8.29999C25.1253 7.29999 24.9248 6.59999 24.3233 6C23.7218 5.3 22.619 5 21.2155 5H17.1053C16.8045 5 16.604 5.2 16.5038 5.5L15 15.6C15 15.8 15.1003 16 15.3008 16H18.0075L18.4085 12.6L20.213 10.4L24.9248 8.29999Z" fill="#003087"/>
<path d="M24.9189 9L24.702 9.22449C24.1596 12.3674 22.3154 13.4898 19.712 13.4898H18.5187C18.1933 13.4898 17.9763 13.7143 17.8678 14.051L17.217 18.4286L17 19.551C17 19.7755 17.1085 20 17.3254 20H19.6035C19.9289 20 20.1459 19.7755 20.1459 19.551V19.4388L20.5798 16.7449V16.6327C20.5798 16.4082 20.9052 16.1837 21.1222 16.1837H21.4476C23.7257 16.1837 25.4613 15.2857 25.8952 12.5919C26.1122 11.4694 26.0037 10.5715 25.4613 9.89796C25.3528 9.33673 25.1359 9.11224 24.9189 9Z" fill="#3086C8"/>
<path d="M24.3538 8.3C24.2462 8.2 24.1385 8.2 24.0308 8.2C23.9231 8.2 23.8154 8.2 23.7077 8.1C23.3846 8 22.9538 8 22.5231 8H19.2923C19.1846 8 19.0769 8 19.0769 8.1C18.8615 8.2 18.7538 8.3 18.7538 8.5L18 12.9V13C18 12.7 18.3231 12.5 18.6462 12.5H20.0462C22.7385 12.5 24.4615 11.5 25 8.7V8.5C24.8923 8.4 24.6769 8.3 24.4615 8.3H24.3538Z" fill="#012169"/>
</svg>
