<svg xmlns="http://www.w3.org/2000/svg" fill="none" viewBox="1.25 2.25 21.5 19.5">
<g clip-path="url(#clip0_425_6594)">
<path d="M17.7983 19.8175L15.6263 20.9555C15.5618 20.989 15.4893 21.004 15.4168 20.9987C15.3444 20.9934 15.2748 20.9681 15.2159 20.9256C15.157 20.8831 15.111 20.825 15.0832 20.7579C15.0554 20.6907 15.0467 20.6172 15.0583 20.5455L15.4733 18.1345L13.7163 16.4275C13.6638 16.3768 13.6267 16.3123 13.6091 16.2416C13.5915 16.1708 13.5942 16.0965 13.6168 16.0271C13.6395 15.9578 13.6811 15.8962 13.7371 15.8494C13.7931 15.8026 13.861 15.7725 13.9333 15.7625L16.3613 15.4105L17.4473 13.2175C17.4798 13.1521 17.5298 13.0972 17.5918 13.0588C17.6538 13.0204 17.7253 13 17.7983 13C17.8712 13 17.9427 13.0204 18.0047 13.0588C18.0667 13.0972 18.1168 13.1521 18.1493 13.2175L19.2353 15.4105L21.6633 15.7625C21.7353 15.7728 21.803 15.8031 21.8587 15.85C21.9144 15.8968 21.9559 15.9583 21.9785 16.0275C22.0011 16.0967 22.0039 16.1708 21.9865 16.2415C21.9691 16.3122 21.9323 16.3766 21.8803 16.4275L20.1233 18.1345L20.5373 20.5445C20.5497 20.6163 20.5417 20.6902 20.5143 20.7578C20.4868 20.8254 20.4409 20.8839 20.3819 20.9267C20.3228 20.9695 20.253 20.9949 20.1802 21C20.1074 21.005 20.0347 20.9896 19.9703 20.9555L17.7983 19.8175Z" stroke="currentColor" stroke-width="1.5" stroke-linecap="round" stroke-linejoin="round"/>
<path d="M6.20063 19.8175L4.02863 20.9555C3.96417 20.989 3.89166 21.004 3.81919 20.9987C3.74672 20.9934 3.67714 20.9681 3.61822 20.9256C3.5593 20.8831 3.51336 20.825 3.48554 20.7579C3.45771 20.6907 3.44908 20.6172 3.46063 20.5455L3.87563 18.1345L2.11863 16.4275C2.06619 16.3768 2.02905 16.3123 2.01147 16.2416C1.99389 16.1708 1.99656 16.0965 2.01919 16.0271C2.04182 15.9578 2.08349 15.8962 2.13944 15.8494C2.19539 15.8026 2.26338 15.7725 2.33563 15.7625L4.76363 15.4105L5.84963 13.2175C5.88211 13.1521 5.93217 13.0972 5.99418 13.0588C6.05618 13.0204 6.12768 13 6.20063 13C6.27357 13 6.34507 13.0204 6.40708 13.0588C6.46909 13.0972 6.51915 13.1521 6.55163 13.2175L7.63763 15.4105L10.0656 15.7625C10.1377 15.7728 10.2054 15.8031 10.2611 15.85C10.3168 15.8968 10.3583 15.9583 10.3809 16.0275C10.4034 16.0967 10.4062 16.1708 10.3888 16.2415C10.3715 16.3122 10.3347 16.3766 10.2826 16.4275L8.52563 18.1345L8.93963 20.5445C8.95205 20.6163 8.94408 20.6902 8.91661 20.7578C8.88914 20.8254 8.84327 20.8839 8.78422 20.9267C8.72517 20.9695 8.6553 20.9949 8.58254 21C8.50979 21.005 8.43706 20.9896 8.37263 20.9555L6.20063 19.8175Z" stroke="currentColor" stroke-width="1.5" stroke-linecap="round" stroke-linejoin="round"/>
<path d="M12.0014 9.81746L9.82941 10.9555C9.76495 10.989 9.69244 11.004 9.61997 10.9987C9.5475 10.9934 9.47792 10.9681 9.419 10.9256C9.36008 10.8831 9.31415 10.825 9.28632 10.7579C9.25849 10.6907 9.24987 10.6172 9.26141 10.5455L9.67641 8.13446L7.91941 6.42746C7.86697 6.37677 7.82983 6.31234 7.81225 6.24155C7.79467 6.17076 7.79734 6.09645 7.81997 6.02711C7.8426 5.95777 7.88427 5.89618 7.94022 5.84939C7.99618 5.80259 8.06416 5.77247 8.13641 5.76246L10.5644 5.41046L11.6504 3.21746C11.6829 3.15215 11.7329 3.09719 11.795 3.05877C11.857 3.02035 11.9285 3 12.0014 3C12.0744 3 12.1459 3.02035 12.2079 3.05877C12.2699 3.09719 12.3199 3.15215 12.3524 3.21746L13.4384 5.41046L15.8664 5.76246C15.9384 5.77283 16.0062 5.80314 16.0619 5.84998C16.1176 5.89682 16.1591 5.95831 16.1816 6.0275C16.2042 6.0967 16.207 6.17083 16.1896 6.24151C16.1723 6.31219 16.1355 6.3766 16.0834 6.42746L14.3264 8.13446L14.7404 10.5445C14.7528 10.6163 14.7449 10.6902 14.7174 10.7578C14.6899 10.8254 14.6441 10.8839 14.585 10.9267C14.526 10.9695 14.4561 10.9949 14.3833 11C14.3106 11.005 14.2378 10.9896 14.1734 10.9555L12.0014 9.81746Z" stroke="currentColor" stroke-width="1.5" stroke-linecap="round" stroke-linejoin="round"/>
</g>
<defs>
<clipPath id="clip0_425_6594">
<rect width="24" height="24" fill="currentColor"/>
</clipPath>
</defs>
</svg>