<svg width="17" height="18" viewBox="0 0 17 18" fill="none" xmlns="http://www.w3.org/2000/svg">
<path d="M7.46136 7.54292L15.3283 4.90438C16.2451 4.59784 16.7382 3.61477 16.4277 2.71198L15.8989 1.17509C15.6572 0.472308 14.9881 6.02241e-05 14.2342 0H14.2341H14.2339C14.042 0 13.8524 0.0307745 13.6703 0.0914805L13.669 0.091902L13.6677 0.0923236L1.19349 4.27612C0.275899 4.58221 -0.21775 5.5657 0.0929686 6.46885L0.621748 8.00574C0.806208 8.54192 1.23942 8.94358 1.76918 9.10411V16.2493C1.76918 17.2146 2.5673 18 3.5483 18H15.2209C16.2019 18 17 17.2146 17 16.2493V8.83292V7.54292H15.6891H7.46136ZM15.6891 16.2493C15.6891 16.5037 15.4795 16.71 15.2209 16.71H3.5483C3.28972 16.71 3.08011 16.5037 3.08011 16.2493V9.01239L3.6151 8.83295H15.689L15.6891 16.2493ZM1.61462 5.49774L14.0907 1.31334C14.1382 1.29753 14.1865 1.29 14.2341 1.29C14.4204 1.29 14.5942 1.40554 14.6572 1.5888L15.186 3.12566C15.2652 3.35566 15.1398 3.60526 14.9061 3.68316L3.39787 7.54292L2.42997 7.86753C2.38248 7.88334 2.33413 7.89087 2.28664 7.89087C2.10034 7.89087 1.9265 7.77533 1.86343 7.59206L1.84654 7.54292L1.33465 6.05521C1.25555 5.82518 1.38089 5.57561 1.61462 5.49774Z" fill="currentColor"/>
<path d="M15.2088 18H3.55716C2.5695 18 1.76596 17.2092 1.76596 16.2372V9.115C1.22937 8.94867 0.80197 8.53715 0.621414 8.01221L0.0935843 6.47789C-0.219234 5.56852 0.277867 4.57796 1.20169 4.26976L13.6535 0.092951C13.8394 0.0310238 14.0303 0 14.2236 0C14.983 6.01236e-05 15.6566 0.475607 15.9001 1.18335L16.4279 2.71767C16.7405 3.62641 16.2439 4.6168 15.321 4.92544L7.55535 7.53029H17V16.2371C17 17.2092 16.1965 18 15.2088 18ZM14.2239 0.0300618C14.0337 0.0300618 13.846 0.0605444 13.6658 0.120608L1.2115 4.29823C0.303586 4.60114 -0.184901 5.5746 0.122511 6.46827L0.650341 8.00259C0.828972 8.52191 1.25344 8.92826 1.78573 9.08957L1.79651 9.09282V16.2371C1.79651 17.1926 2.58633 17.9699 3.55716 17.9699H15.2088C16.1796 17.9699 16.9695 17.1926 16.9695 16.2371V7.56039H7.37107L15.3111 4.897C16.2181 4.59368 16.7062 3.62037 16.399 2.72732L15.8712 1.193C15.6319 0.497462 14.9699 0.0301219 14.2239 0.0300618ZM15.2088 16.7122H3.55716C3.29105 16.7122 3.07454 16.4991 3.07454 16.2372V9.00164L3.62384 8.8182H15.6914V16.2372C15.6914 16.4991 15.4749 16.7122 15.2088 16.7122ZM3.10512 9.0231V16.2372C3.10512 16.4825 3.30791 16.6821 3.55719 16.6821H15.2088C15.4581 16.6821 15.6609 16.4825 15.6609 16.2372V8.84823H3.62641L3.10512 9.0231ZM2.29776 7.90775C2.09992 7.90775 1.92434 7.78375 1.86087 7.59923L1.33304 6.0649C1.29354 5.95007 1.30185 5.82693 1.35641 5.71823C1.41099 5.60953 1.50532 5.52824 1.62206 5.48934L14.0757 1.31196C14.1238 1.29593 14.1735 1.28785 14.2237 1.28785C14.4215 1.28785 14.5971 1.41182 14.6606 1.59637L15.1884 3.13069C15.228 3.24553 15.2196 3.36866 15.1651 3.4774C15.1105 3.58613 15.0161 3.66742 14.8994 3.70632L2.44576 7.8837C2.39774 7.89963 2.34795 7.90775 2.29776 7.90775ZM14.2237 1.31788C14.1769 1.31788 14.1304 1.32545 14.0855 1.34039L1.6319 5.51781C1.52288 5.55412 1.43479 5.63003 1.3838 5.73155C1.33285 5.83307 1.3251 5.94802 1.362 6.05528L1.88983 7.58961C1.94911 7.76192 2.11308 7.87769 2.29779 7.87769C2.34462 7.87769 2.39111 7.87011 2.43598 7.85517L14.8897 3.67779C14.9986 3.64147 15.0867 3.56554 15.1377 3.46402C15.1887 3.3625 15.1964 3.24751 15.1595 3.14028L14.6317 1.60596C14.5724 1.43365 14.4084 1.31788 14.2237 1.31788Z" fill="currentColor"/>
<path d="M12.3887 15H13.6113C13.826 15 14 14.8349 14 14.6313V14.3687C14 14.1651 13.826 14 13.6113 14H12.3887C12.174 14 12 14.1651 12 14.3687V14.6313C12 14.835 12.174 15 12.3887 15Z" fill="white"/>
<path d="M13.6036 15H12.3964C12.1778 15 12 14.8332 12 14.6282V14.3718C12 14.1668 12.1778 14 12.3964 14H13.6036C13.8222 14 14 14.1668 14 14.3718V14.6282C14 14.8332 13.8222 15 13.6036 15ZM12.3964 14.0235C12.1917 14.0235 12.0251 14.1798 12.0251 14.3718V14.6282C12.0251 14.8202 12.1917 14.9765 12.3964 14.9765H13.6036C13.8083 14.9765 13.9749 14.8202 13.9749 14.6282V14.3718C13.9749 14.1798 13.8083 14.0235 13.6036 14.0235H12.3964Z" fill="currentColor"/>
</svg>
