<svg width="40" height="25" viewBox="0 0 40 25" fill="none" xmlns="http://www.w3.org/2000/svg">
<path opacity="0.07" d="M36.8421 0H3.15789C1.36842 0 0 1.35416 0 3.12499V21.875C0 23.6458 1.47368 25 3.15789 25H36.8421C38.6316 25 40 23.6458 40 21.875V3.12499C40 1.35416 38.5263 0 36.8421 0Z" fill="white"/>
<path d="M36.8889 1C38.05 1 39 1.94091 39 3.09091V21.9091C39 23.0591 38.05 24 36.8889 24H3.11111C1.95 24 1 23.0591 1 21.9091V3.09091C1 1.94091 1.95 1 3.11111 1H36.8889Z" fill="white"/>
<path d="M28.1221 10.1H27.8244C27.4275 11.1 27.1298 11.6 26.8321 13.1H28.7176C28.4198 11.6 28.4198 10.9 28.1221 10.1ZM31 16H29.313C29.2137 16 29.2137 16 29.1145 15.9L28.916 15L28.8168 14.8H26.4351C26.3359 14.8 26.2366 14.8 26.2366 15L25.9389 15.9C25.9389 16 25.8397 16 25.8397 16H23.7557L23.9542 15.5L26.8321 8.7C26.8321 8.2 27.1298 8 27.626 8H29.1145C29.2137 8 29.313 8 29.313 8.2L30.7023 14.7C30.8015 15.1 30.9008 15.4 30.9008 15.8C31 15.9 31 15.9 31 16ZM17.7023 15.7L18.0992 13.9C18.1985 13.9 18.2977 14 18.2977 14C18.9924 14.3 19.687 14.5 20.3817 14.4C20.5802 14.4 20.8779 14.3 21.0763 14.2C21.5725 14 21.5725 13.5 21.1756 13.1C20.9771 12.9 20.6794 12.8 20.3817 12.6C19.9847 12.4 19.5878 12.2 19.2901 11.9C18.0992 10.9 18.4962 9.49999 19.1908 8.8C19.7863 8.4 20.084 8 20.8779 8C22.0687 8 23.3588 8 23.9542 8.2H24.0534C23.9542 8.8 23.855 9.29999 23.6565 9.90003C23.1603 9.70003 22.6641 9.49999 22.1679 9.49999C21.8702 9.49999 21.5725 9.49999 21.2748 9.59999C21.0763 9.59999 20.9771 9.70003 20.8779 9.80003C20.6794 10 20.6794 10.3 20.8779 10.5L21.374 10.9C21.771 11.1 22.1679 11.3 22.4656 11.5C22.9618 11.8 23.458 12.3 23.5573 12.9C23.7557 13.8 23.458 14.6 22.6641 15.2C22.1679 15.6 21.9695 15.8 21.2748 15.8C19.8855 15.8 18.7939 15.9 17.9008 15.6C17.8015 15.8 17.8015 15.8 17.7023 15.7ZM14.229 16C14.3282 15.3 14.3282 15.3 14.4275 15C14.9237 12.8 15.4198 10.5 15.8168 8.3C15.916 8.1 15.916 8 16.1145 8H17.9008C17.7023 9.19999 17.5038 10.1 17.2061 11.2C16.9084 12.7 16.6107 14.2 16.2137 15.7C16.2137 15.9 16.1145 15.9 15.916 15.9M5 8.2C5 8.1 5.19847 8 5.29771 8H8.67176C9.16794 8 9.56489 8.3 9.66412 8.8L10.5573 13.2C10.5573 13.3 10.5573 13.3 10.6565 13.4C10.6565 13.3 10.7557 13.3 10.7557 13.3L12.8397 8.2C12.7405 8.1 12.8397 8 12.9389 8H15.0229C15.0229 8.1 15.0229 8.1 14.9237 8.2L11.8473 15.5C11.7481 15.7 11.7481 15.8 11.6489 15.9C11.5496 16 11.3511 15.9 11.1527 15.9H9.66412C9.56489 15.9 9.46565 15.9 9.46565 15.7L7.87786 9.49999C7.67939 9.29999 7.38168 8.99999 6.98473 8.9C6.38931 8.6 5.29771 8.4 5.09924 8.4L5 8.2Z" fill="#142688"/>
</svg>
