<svg width="24" height="24" viewBox="0 0 24 24" fill="none" xmlns="http://www.w3.org/2000/svg">
<path d="M23.25 6.89625V11.9388C20.9826 11.7138 18.8206 10.8702 17 9.5V15.125C16.9997 16.6514 16.5694 18.1469 15.7584 19.44C14.9474 20.7332 13.7885 21.7717 12.4146 22.4367C11.0406 23.1016 9.50714 23.3661 7.98981 23.1998C6.47249 23.0335 5.03269 22.4432 3.83538 21.4964C2.63807 20.5496 1.73167 19.2847 1.22003 17.8466C0.708393 16.4085 0.612204 14.8554 0.942486 13.3651C1.27277 11.8749 2.01616 10.5078 3.0875 9.42052C4.15884 8.33325 5.51479 7.56975 7 7.2175V12.625C6.57386 12.9446 6.23649 13.3678 6.01992 13.8545C5.80336 14.3412 5.71479 14.8751 5.76263 15.4056C5.81047 15.9362 5.99312 16.4457 6.29325 16.8857C6.59338 17.3258 7.00102 17.6819 7.47746 17.9201C7.9539 18.1583 8.48333 18.2708 9.01546 18.2468C9.5476 18.2229 10.0648 18.0633 10.5179 17.7833C10.971 17.5032 11.345 17.112 11.6044 16.6468C11.8638 16.1815 12 15.6577 12 15.125V0.75H17.1038C17.364 2.2855 18.0955 3.70203 19.1967 4.80328C20.298 5.90453 21.7145 6.63598 23.25 6.89625Z" stroke="currentColor" stroke-width="1.5" stroke-linecap="round" stroke-linejoin="round"/>
</svg>
