<svg xmlns="http://www.w3.org/2000/svg" fill="none" viewBox="3 5.5 24 19">
<g clip-path="url(#clip0_2032_164)">
<path d="M3.75 11.25C3.75 9.92392 4.27678 8.65215 5.21447 7.71447C6.15215 6.77678 7.42392 6.25 8.75 6.25H21.25C22.5761 6.25 23.8479 6.77678 24.7855 7.71447C25.7232 8.65215 26.25 9.92392 26.25 11.25V18.75C26.25 20.0761 25.7232 21.3479 24.7855 22.2855C23.8479 23.2232 22.5761 23.75 21.25 23.75H8.75C7.42392 23.75 6.15215 23.2232 5.21447 22.2855C4.27678 21.3479 3.75 20.0761 3.75 18.75V11.25Z" stroke="currentColor" stroke-width="1.5" stroke-linecap="round" stroke-linejoin="round"/>
<path d="M12.5 11.25L18.75 15L12.5 18.75V11.25Z" stroke="white" stroke-width="1.5" stroke-linecap="round" stroke-linejoin="round"/>
</g>
<defs>
<clipPath id="clip0_2032_164">
<rect width="30" height="30" fill="currentColor"/>
</clipPath>
</defs>
</svg>