<svg width="18" height="18" viewBox="0 0 18 18" fill="none" xmlns="http://www.w3.org/2000/svg">
<path fill-rule="evenodd" clip-rule="evenodd" d="M6.90698 0C7.25376 0 7.53488 0.281124 7.53488 0.627907V2.30233C7.53488 2.64911 7.25376 2.93023 6.90698 2.93023C6.56019 2.93023 6.27907 2.64911 6.27907 2.30233V0.627907C6.27907 0.281124 6.56019 0 6.90698 0ZM11.093 0C11.4398 0 11.7209 0.281124 11.7209 0.627907V2.30233C11.7209 2.64911 11.4398 2.93023 11.093 2.93023C10.7462 2.93023 10.4651 2.64911 10.4651 2.30233V0.627907C10.4651 0.281124 10.7462 0 11.093 0ZM9.98038 5.58523C10.248 5.80579 10.2861 6.20152 10.0656 6.46913L8.58232 8.26874L10.0384 8.55729C10.0382 8.55726 10.0385 8.55732 10.0384 8.55729C10.415 8.63179 10.7119 8.891 10.8299 9.23487C10.9497 9.58426 10.8703 9.98686 10.5769 10.2718C10.5768 10.2718 10.5769 10.2717 10.5769 10.2718L8.40516 12.3807C8.15637 12.6223 7.75885 12.6165 7.51726 12.3677C7.27567 12.1189 7.2815 11.7214 7.53028 11.4798L9.35989 9.70307L7.96119 9.42588C7.26476 9.28697 6.80893 8.44641 7.34572 7.7946L9.09648 5.67041C9.31704 5.4028 9.71278 5.36467 9.98038 5.58523ZM9.70193 9.37091C9.70191 9.37093 9.70196 9.37089 9.70193 9.37091V9.37091ZM9.79512 9.78932C9.79498 9.78929 9.79527 9.78935 9.79512 9.78932V9.78932ZM0 6.90698C0 6.56019 0.281124 6.27907 0.627907 6.27907H2.30233C2.64911 6.27907 2.93023 6.56019 2.93023 6.90698C2.93023 7.25376 2.64911 7.53488 2.30233 7.53488H0.627907C0.281124 7.53488 0 7.25376 0 6.90698ZM15.0698 6.90698C15.0698 6.56019 15.3509 6.27907 15.6977 6.27907H17.3721C17.7189 6.27907 18 6.56019 18 6.90698C18 7.25376 17.7189 7.53488 17.3721 7.53488H15.6977C15.3509 7.53488 15.0698 7.25376 15.0698 6.90698ZM0 11.093C0 10.7462 0.281124 10.4651 0.627907 10.4651H2.30233C2.64911 10.4651 2.93023 10.7462 2.93023 11.093C2.93023 11.4398 2.64911 11.7209 2.30233 11.7209H0.627907C0.281124 11.7209 0 11.4398 0 11.093ZM15.0698 11.093C15.0698 10.7462 15.3509 10.4651 15.6977 10.4651H17.3721C17.7189 10.4651 18 10.7462 18 11.093C18 11.4398 17.7189 11.7209 17.3721 11.7209H15.6977C15.3509 11.7209 15.0698 11.4398 15.0698 11.093ZM6.90698 15.0698C7.25376 15.0698 7.53488 15.3509 7.53488 15.6977V17.3721C7.53488 17.7189 7.25376 18 6.90698 18C6.56019 18 6.27907 17.7189 6.27907 17.3721V15.6977C6.27907 15.3509 6.56019 15.0698 6.90698 15.0698ZM11.093 15.0698C11.4398 15.0698 11.7209 15.3509 11.7209 15.6977V17.3721C11.7209 17.7189 11.4398 18 11.093 18C10.7462 18 10.4651 17.7189 10.4651 17.3721V15.6977C10.4651 15.3509 10.7462 15.0698 11.093 15.0698Z" fill="#121212"/>
<path fill-rule="evenodd" clip-rule="evenodd" d="M13.1763 3.40555C12.2955 3.28708 11.1343 3.28571 9.5 3.28571C7.86578 3.28571 6.7048 3.28729 5.82409 3.40586C4.96188 3.52194 4.46486 3.73945 4.1018 4.10219C3.73903 4.46466 3.52153 4.96134 3.40555 5.82369C3.28708 6.70452 3.28571 7.86568 3.28571 9.5C3.28571 11.1342 3.28729 12.2952 3.40586 13.1759C3.52194 14.0381 3.73945 14.5351 4.10219 14.8982C4.46466 15.261 4.96134 15.4785 5.82369 15.5944C6.70452 15.7129 7.86568 15.7143 9.5 15.7143C11.1342 15.7143 12.2952 15.7127 13.1759 15.5941C14.0381 15.4781 14.5351 15.2606 14.8982 14.8978C15.261 14.5353 15.4785 14.0387 15.5944 13.1763C15.7129 12.2955 15.7143 11.1343 15.7143 9.5C15.7143 7.86578 15.7127 6.7048 15.5941 5.82409C15.4781 4.96188 15.2606 4.46486 14.8978 4.1018C14.5353 3.73903 14.0387 3.52153 13.1763 3.40555ZM13.3477 2.13131C14.3526 2.26647 15.1661 2.55126 15.8073 3.19305C16.4483 3.83457 16.7331 4.64769 16.8684 5.65255C17 6.6305 17 7.88039 17 9.45916V9.54839C17 11.1235 17 12.3712 16.8687 13.3477C16.7335 14.3526 16.4487 15.1661 15.8069 15.8073C15.1654 16.4483 14.3523 16.7331 13.3474 16.8684C12.3695 17 11.1196 17 9.54084 17H9.45161C7.87651 17 6.62879 17 5.65231 16.8687C4.64737 16.7335 3.83391 16.4487 3.19267 15.8069C2.5517 15.1654 2.26692 14.3523 2.13164 13.3474C1.99998 12.3695 1.99999 11.1196 2 9.54084L2 9.45163C1.99999 7.87652 1.99998 6.62879 2.13131 5.65231C2.26647 4.64737 2.55126 3.83391 3.19305 3.19267C3.83457 2.5517 4.64769 2.26692 5.65255 2.13164C6.6305 1.99998 7.8804 1.99999 9.45916 2L9.54837 2C11.1235 1.99999 12.3712 1.99998 13.3477 2.13131Z" fill="currentColor"/>
</svg>
