<svg width="18" height="18" viewBox="0 0 18 18" fill="none" xmlns="http://www.w3.org/2000/svg">
<path fill-rule="evenodd" clip-rule="evenodd" d="M9 1.25581C4.72288 1.25581 1.25581 4.72288 1.25581 9C1.25581 13.2771 4.72288 16.7442 9 16.7442C13.2771 16.7442 16.7442 13.2771 16.7442 9C16.7442 4.72288 13.2771 1.25581 9 1.25581ZM0 9C0 4.02931 4.02931 0 9 0C13.9707 0 18 4.02931 18 9C18 13.9707 13.9707 18 9 18C4.02931 18 0 13.9707 0 9Z" fill="black"/>
<path fill-rule="evenodd" clip-rule="evenodd" d="M9 4.2C8.52261 4.2 8.06477 4.38964 7.72721 4.72721C7.38964 5.06477 7.2 5.52261 7.2 6C7.2 6.47739 7.38964 6.93523 7.72721 7.27279C8.06477 7.61036 8.52261 7.8 9 7.8C9.47739 7.8 9.93523 7.61036 10.2728 7.27279C10.6104 6.93523 10.8 6.47739 10.8 6C10.8 5.52261 10.6104 5.06477 10.2728 4.72721C9.93523 4.38964 9.47739 4.2 9 4.2ZM6.87868 3.87868C7.44129 3.31607 8.20435 3 9 3C9.79565 3 10.5587 3.31607 11.1213 3.87868C11.6839 4.44129 12 5.20435 12 6C12 6.79565 11.6839 7.55871 11.1213 8.12132C10.5587 8.68393 9.79565 9 9 9C8.20435 9 7.44129 8.68393 6.87868 8.12132C6.31607 7.55871 6 6.79565 6 6C6 5.20435 6.31607 4.44129 6.87868 3.87868Z" fill="currentColor"/>
<path fill-rule="evenodd" clip-rule="evenodd" d="M8.5 12C8.82752 12 9.09302 12.2686 9.09302 12.6V14.2C9.09302 14.5314 8.82752 14.8 8.5 14.8C8.17248 14.8 7.90698 14.5314 7.90698 14.2V12.6C7.90698 12.2686 8.17248 12 8.5 12ZM2.9891 14.9757C3.22069 15.2101 3.22069 15.5899 2.9891 15.8243L1.01235 17.8243C0.780764 18.0586 0.405282 18.0586 0.173692 17.8243C-0.0578975 17.5899 -0.0578975 17.2101 0.173692 16.9757L2.15044 14.9757C2.38203 14.7414 2.75751 14.7414 2.9891 14.9757ZM14.0109 14.9757C14.2425 14.7414 14.618 14.7414 14.8496 14.9757L16.8263 16.9757C17.0579 17.2101 17.0579 17.5899 16.8263 17.8243C16.5947 18.0586 16.2192 18.0586 15.9876 17.8243L14.0109 15.8243C13.7793 15.5899 13.7793 15.2101 14.0109 14.9757Z" fill="currentColor"/>
</svg>
