<svg width="12" height="15" viewBox="0 0 12 15" fill="none" xmlns="http://www.w3.org/2000/svg">
<path fill-rule="evenodd" clip-rule="evenodd" d="M3 1H9C9.53043 1 10.0391 1.19566 10.4142 1.54394C10.7893 1.89223 11 2.3646 11 2.85714V12.1429C11 12.6354 10.7893 13.1078 10.4142 13.4561C10.0391 13.8043 9.53043 14 9 14H3C2.46957 14 1.96086 13.8043 1.58579 13.4561C1.21071 13.1078 1 12.6354 1 12.1429V2.85714C1 2.3646 1.21071 1.89223 1.58579 1.54394C1.96086 1.19566 2.46957 1 3 1Z" stroke="currentColor" stroke-linecap="round" stroke-linejoin="round"/>
<path d="M6 12C6.55228 12 7 11.5523 7 11C7 10.4477 6.55228 10 6 10C5.44772 10 5 10.4477 5 11C5 11.5523 5.44772 12 6 12Z" fill="currentColor"/>
</svg>
