<svg width="19" height="14" viewBox="0 0 19 14" fill="none" xmlns="http://www.w3.org/2000/svg">
<path d="M16.7833 11.4545C17.0352 11.4542 17.2766 11.3536 17.4547 11.1746C17.6328 10.9957 17.733 10.7531 17.7333 10.5V0.954545C17.733 0.701481 17.6328 0.458872 17.4547 0.279929C17.2766 0.100985 17.0352 0.000315739 16.7833 0H2.21667C1.96481 0.000315739 1.72335 0.100985 1.54526 0.279929C1.36717 0.458872 1.26698 0.701481 1.26667 0.954545V10.5C1.26698 10.7531 1.36717 10.9957 1.54526 11.1746C1.72335 11.3536 1.96481 11.4542 2.21667 11.4545H16.7833ZM2.53333 1.27273H16.4667V10.1818H2.53333V1.27273ZM0 13.3636C0 13.0122 0.28491 12.7273 0.636364 12.7273H18.3636C18.7151 12.7273 19 13.0122 19 13.3636C19 13.7151 18.7151 14 18.3636 14H0.636364C0.28491 14 0 13.7151 0 13.3636Z" fill="currentColor"/>
</svg>
