<svg xmlns="http://www.w3.org/2000/svg" fill="none" viewBox="5 3 11 15">
<path fill-rule="evenodd" clip-rule="evenodd" d="M7.75 6.1C6.83873 6.1 6.1 6.83873 6.1 7.75V13.25C6.1 14.1613 6.83873 14.9 7.75 14.9H13.25C14.1613 14.9 14.9 14.1613 14.9 13.25V7.75C14.9 6.83873 14.1613 6.1 13.25 6.1H7.75ZM5 7.75C5 6.23122 6.23122 5 7.75 5H13.25C14.7688 5 16 6.23122 16 7.75V13.25C16 14.7688 14.7688 16 13.25 16H7.75C6.23122 16 5 14.7688 5 13.25V7.75Z" fill="currentColor"/>
<path fill-rule="evenodd" clip-rule="evenodd" d="M9 4V6H8V3.75C8 3.55109 8.07902 3.36032 8.21967 3.21967C8.36032 3.07902 8.55109 3 8.75 3H13.25C13.4489 3 13.6397 3.07902 13.7803 3.21967C13.921 3.36032 14 3.55109 14 3.75V6H13V4H9ZM9 17V15H8V17.25C8 17.4489 8.07902 17.6397 8.21967 17.7803C8.36032 17.921 8.55109 18 8.75 18H13.25C13.4489 18 13.6397 17.921 13.7803 17.7803C13.921 17.6397 14 17.4489 14 17.25V15H13V17H9Z" fill="currentColor"/>
</svg>