<svg width="17" height="14" viewBox="0 0 17 14" fill="none" xmlns="http://www.w3.org/2000/svg">
<path d="M9.33333 10.4286V1.85714C9.33333 1.38376 8.96025 1 8.5 1H1.83333C1.3731 1 1 1.38376 1 1.85714V10.4286C1 10.902 1.3731 11.2857 1.83333 11.2857H2.66667M9.33333 10.4286C9.33333 10.902 8.96025 11.2857 8.5 11.2857H6M9.33333 10.4286V3.57143C9.33333 3.09805 9.70642 2.71429 10.1667 2.71429H12.3215C12.5425 2.71429 12.7545 2.80459 12.9107 2.96533L15.7559 5.8918C15.9122 6.05251 16 6.27057 16 6.49789V10.4286C16 10.902 15.6269 11.2857 15.1667 11.2857H14.3333M9.33333 10.4286C9.33333 10.902 9.70642 11.2857 10.1667 11.2857H11M2.66667 11.2857C2.66667 12.2325 3.41286 13 4.33333 13C5.25381 13 6 12.2325 6 11.2857M2.66667 11.2857C2.66667 10.3389 3.41286 9.57143 4.33333 9.57143C5.25381 9.57143 6 10.3389 6 11.2857M14.3333 11.2857C14.3333 12.2325 13.5872 13 12.6667 13C11.7462 13 11 12.2325 11 11.2857M14.3333 11.2857C14.3333 10.3389 13.5872 9.57143 12.6667 9.57143C11.7462 9.57143 11 10.3389 11 11.2857" stroke="currentColor"/>
</svg>
