<svg width="17" height="17" viewBox="0 0 17 17" fill="none" xmlns="http://www.w3.org/2000/svg">
<path d="M8.5 5.16667V16M8.5 5.16667C8.5 5.16667 8.5 3.92268 8.5 3.5C8.5 2.57952 9.24617 1.83333 10.1667 1.83333C11.0872 1.83333 11.8333 2.57952 11.8333 3.5C11.8333 4.42047 11.0872 5.16667 10.1667 5.16667C9.66892 5.16667 8.5 5.16667 8.5 5.16667ZM8.5 5.16667C8.5 5.16667 8.5 3.55242 8.5 3.08333C8.5 1.93274 7.56725 1 6.41667 1C5.26607 1 4.33333 1.93274 4.33333 3.08333C4.33333 4.23392 5.26607 5.16667 6.41667 5.16667C7.09817 5.16667 8.5 5.16667 8.5 5.16667ZM2.66667 8.5H14.3333M2.66667 8.5C1.74619 8.5 1 7.75383 1 6.83333C1 5.91286 1.74619 5.16667 2.66667 5.16667H14.3333C15.2538 5.16667 16 5.91286 16 6.83333C16 7.75383 15.2538 8.5 14.3333 8.5M2.66667 8.5V14.3333C2.66667 15.2538 3.41286 16 4.33333 16H12.6667C13.5872 16 14.3333 15.2538 14.3333 14.3333V8.5" stroke="currentColor" stroke-linecap="round" stroke-linejoin="round"/>
</svg>
