<svg xmlns="http://www.w3.org/2000/svg" fill="none" viewBox="2.5 2.5 17 17">
<path d="M3 3H10.4818L18.53 11.0483C18.6791 11.1971 18.7972 11.374 18.8779 11.5685C18.9585 11.7631 19 11.9717 19 12.1823C19 12.3929 18.9585 12.6015 18.8779 12.796C18.7972 12.9907 18.6791 13.1674 18.53 13.3163L13.3163 18.53C13.1674 18.6791 12.9907 18.7972 12.796 18.8779C12.6015 18.9585 12.3929 19 12.1823 19C11.9717 19 11.7631 18.9585 11.5685 18.8779C11.374 18.7972 11.1971 18.6791 11.0483 18.53L3 10.4818V3Z" stroke="currentColor" stroke-linecap="round" stroke-linejoin="round"/>
<path d="M7.50002 9C8.32845 9 9 8.32843 9 7.50001C9 6.67157 8.32845 6 7.50002 6C6.67158 6 6 6.67157 6 7.50001C6 8.32843 6.67158 9 7.50002 9Z" stroke="currentColor" stroke-linecap="round" stroke-linejoin="round"/>
</svg>